<svg xmlns="http://www.w3.org/2000/svg" width="512" height="512" viewBox="0 0 512 512" version="1.1">
	<path d="M 251.110 1.396 C 242.441 6.201, 246.068 20, 256 20 C 261.067 20, 266 15.115, 266 10.097 C 266 2.589, 257.703 -2.259, 251.110 1.396 M 195.870 23.411 C 191.536 24.813, 188.360 30.298, 189.416 34.560 C 189.865 36.370, 193.884 41.246, 199.877 47.250 C 208.987 56.376, 209.869 57, 213.659 57 C 220.437 57, 225.191 50.881, 223.536 44.286 C 222.617 40.624, 205.275 23.434, 201.868 22.807 C 200.421 22.540, 197.722 22.812, 195.870 23.411 M 298.382 32.270 C 288.402 42.141, 288 42.706, 288 46.847 C 288 54.883, 295.571 59.358, 302.800 55.594 C 306.642 53.594, 320.732 38.836, 322.010 35.473 C 324.403 29.179, 319.232 22, 312.305 22 C 309.154 22, 307.620 23.131, 298.382 32.270 M 73.388 26.980 C 69.165 28.686, 67 32.828, 67 39.201 C 67 42.463, 67.503 46.114, 68.117 47.316 C 71.346 53.630, 79.170 54.983, 84.077 50.077 C 86.780 47.374, 87 46.598, 87 39.765 C 87 33.647, 86.640 31.991, 84.904 30.127 C 81.462 26.433, 77.453 25.338, 73.388 26.980 M 429.763 27.565 C 426.125 29.539, 424 33.897, 424 39.385 C 424 47.929, 427.745 53, 434.054 53 C 438.948 53, 442.673 49.928, 444.070 44.738 C 446.203 36.817, 443.438 29.046, 437.785 27.075 C 433.865 25.708, 433.099 25.755, 429.763 27.565 M 251.110 39.396 C 246.654 41.865, 246.073 44.400, 246.035 61.527 C 245.996 79.414, 246.485 81.051, 252.631 83.619 C 255.528 84.829, 256.472 84.829, 259.369 83.619 C 265.488 81.063, 266 79.379, 266 61.825 C 266 51.758, 265.570 45.150, 264.805 43.472 C 262.616 38.666, 255.986 36.693, 251.110 39.396 M 42.879 56.816 C 40.254 59.162, 39.727 60.363, 39.727 64 C 39.727 67.637, 40.254 68.838, 42.879 71.184 C 45.705 73.709, 46.762 74, 53.093 74 C 59.564 74, 60.398 73.756, 63.077 71.077 C 65.369 68.784, 66 67.258, 66 64 C 66 60.742, 65.369 59.216, 63.077 56.923 C 60.398 54.244, 59.564 54, 53.093 54 C 46.762 54, 45.705 54.291, 42.879 56.816 M 91.077 57.077 C 86.785 61.369, 86.785 66.631, 91.077 70.923 C 93.869 73.716, 94.743 74, 100.530 74 C 104.037 74, 107.978 73.512, 109.288 72.915 C 112.094 71.636, 115 67.101, 115 64 C 115 60.899, 112.094 56.364, 109.288 55.085 C 107.978 54.488, 104.037 54, 100.530 54 C 94.743 54, 93.869 54.284, 91.077 57.077 M 399.923 56.923 C 397.631 59.216, 397 60.742, 397 64 C 397 67.258, 397.631 68.784, 399.923 71.077 C 402.585 73.739, 403.458 74, 409.701 74 C 417.600 74, 420.462 72.531, 422.619 67.369 C 423.829 64.472, 423.829 63.528, 422.619 60.631 C 420.462 55.469, 417.600 54, 409.701 54 C 403.458 54, 402.585 54.261, 399.923 56.923 M 450.110 55.396 C 443.408 59.110, 443.628 69.687, 450.472 72.805 C 454.064 74.442, 463.502 74.309, 466.855 72.575 C 469.718 71.095, 472 67.291, 472 64 C 472 60.709, 469.718 56.905, 466.855 55.425 C 463.415 53.646, 453.299 53.628, 450.110 55.396 M 71.367 76.772 C 68.051 79.458, 67 82.367, 67 88.858 C 67 93.804, 67.440 95.369, 69.527 97.850 C 73.785 102.910, 80.202 102.919, 84.904 97.873 C 86.640 96.009, 87 94.353, 87 88.235 C 87 81.402, 86.780 80.626, 84.077 77.923 C 80.643 74.489, 74.835 73.963, 71.367 76.772 M 428.127 77.096 C 425.175 79.847, 424 83.125, 424 88.615 C 424 97.652, 429.859 103.258, 437.052 101.103 C 439.102 100.488, 441.494 98.896, 442.367 97.563 C 446.218 91.686, 445.146 80.833, 440.341 77.054 C 436.869 74.322, 431.083 74.342, 428.127 77.096 M 244.193 106.010 C 216.542 109.875, 191.521 127.412, 178.671 151.935 C 176.203 156.646, 173.627 162.391, 172.947 164.703 L 171.711 168.907 165.816 163.571 C 159.416 157.780, 151.350 153.081, 142.275 149.859 C 134.053 146.939, 115.802 146.174, 107 148.381 C 82.557 154.509, 62.825 174.421, 57.507 198.325 C 56.132 204.502, 55.921 210.495, 56.224 234.612 C 56.557 261.036, 56.774 264.056, 58.762 270.015 C 62.790 282.089, 72.662 295.887, 82.149 302.703 L 87 306.188 87 312.482 L 87 318.777 66.325 323.827 C 38.450 330.637, 28.935 335.610, 16.680 349.774 C 9.881 357.632, 4.786 367.607, 1.992 378.532 C 0.171 385.652, -0 389.646, 0 425.113 C 0 453.060, 0.334 464.639, 1.195 466.528 C 3.647 471.911, 4.426 472, 48.950 472 L 90 472 90 488.923 L 90 505.846 93.077 508.923 L 96.154 512 154.500 512 L 212.847 512 215.814 509.503 C 217.446 508.130, 219.064 505.880, 219.410 504.503 L 220.038 502 233.019 502 C 245.537 502, 246 502.075, 246 504.099 C 246 507.354, 251.603 512, 255.529 512 C 259.462 512, 264.485 508.189, 265.410 504.503 C 266.032 502.026, 266.150 502, 276.818 502 L 287.598 502 288.867 505.510 C 291.281 512.186, 289.393 512, 354.903 512 C 395.197 512, 414.661 511.656, 416.288 510.915 C 421.221 508.667, 422 505.554, 422 488.096 L 422 472 462.953 472 C 491.850 472, 504.654 471.659, 506.447 470.842 C 507.845 470.205, 509.891 468.154, 510.994 466.285 C 512.911 463.037, 513 461.126, 513 423.276 C 513 401.491, 512.696 383.970, 512.325 384.342 C 511.954 384.713, 510.837 381.814, 509.843 377.900 C 507.237 367.640, 501.996 357.490, 495.320 349.774 C 483.065 335.610, 473.550 330.637, 445.675 323.827 L 425 318.777 425 312.482 L 425 306.188 429.851 302.703 C 439.338 295.887, 449.210 282.089, 453.238 270.015 C 455.226 264.056, 455.443 261.036, 455.776 234.612 C 456.079 210.495, 455.868 204.502, 454.493 198.325 C 449.175 174.421, 429.443 154.509, 405 148.381 C 396.198 146.174, 377.947 146.939, 369.725 149.859 C 360.853 153.009, 352.781 157.659, 346.562 163.203 C 343.452 165.974, 340.791 168.075, 340.647 167.871 C 340.503 167.667, 339.114 164.185, 337.559 160.133 C 328.169 135.666, 304.213 114.800, 277.776 108.063 C 268.625 105.731, 253.013 104.777, 244.193 106.010 M 245 126.687 C 231.858 128.864, 218.939 135.839, 208.485 146.402 C 195.243 159.782, 189 174.669, 189 192.867 L 189 202.274 208.750 201.723 C 224.818 201.276, 229.893 200.772, 235.973 199.021 C 249.644 195.085, 263.557 186.487, 271.914 176.811 C 275.792 172.321, 280.835 170.398, 284.960 171.836 C 286.555 172.392, 295.654 177.444, 305.180 183.063 C 314.706 188.682, 322.845 193.473, 323.267 193.709 C 324.311 194.294, 323.127 183.861, 321.315 176.500 C 318.150 163.642, 309.521 150.185, 298.684 141.204 C 291.740 135.450, 279.083 129.295, 270.500 127.499 C 264.006 126.141, 250.830 125.721, 245 126.687 M 277.500 200.153 C 265.378 210.249, 250.747 217.313, 235.339 220.508 C 230.539 221.503, 219.788 222.363, 207.606 222.726 L 187.712 223.319 188.283 238.909 C 188.988 258.208, 189.980 263.019, 195.720 275 C 203.606 291.463, 218.872 304.556, 236.500 309.975 C 267.489 319.503, 302.112 304.606, 316.414 275.592 C 322.110 264.035, 323.146 258.630, 323.728 237.414 L 324.251 218.328 304.280 206.664 C 293.296 200.249, 284.127 195.035, 283.905 195.078 C 283.682 195.121, 280.800 197.404, 277.500 200.153 M 160.224 225.039 C 143.801 232.605, 126.765 235.790, 98.107 236.653 L 75.713 237.326 76.348 247.913 C 77.345 264.552, 80.609 272.769, 89.920 282.080 C 98.972 291.132, 109.011 295.250, 122 295.239 C 136.557 295.228, 149.326 288.891, 158.119 277.313 C 165.560 267.515, 167.069 261.693, 167.725 240.250 C 168.045 229.789, 167.903 222.032, 167.392 222.074 C 166.901 222.115, 163.676 223.449, 160.224 225.039 M 344.275 240.250 C 344.931 261.693, 346.440 267.515, 353.881 277.313 C 362.674 288.891, 375.443 295.228, 390 295.239 C 402.989 295.250, 413.028 291.132, 422.080 282.080 C 431.391 272.769, 434.655 264.552, 435.652 247.913 L 436.287 237.326 413.893 236.653 C 385.210 235.790, 368.632 232.687, 351.403 224.957 C 347.779 223.330, 344.567 222, 344.265 222 C 343.963 222, 343.968 230.213, 344.275 240.250 M 218.500 231.899 C 208.726 236.127, 211.482 250.920, 222.100 251.222 C 228.967 251.417, 234.104 244.876, 232.027 238.583 C 231.421 236.745, 230.097 234.493, 229.086 233.578 C 226.885 231.586, 221.279 230.697, 218.500 231.899 M 282.981 233.750 C 275.093 240.861, 281.275 253.199, 291.725 251.202 C 294.778 250.618, 298.667 246.521, 299.297 243.226 C 300.446 237.214, 294.992 231, 288.565 231 C 287.172 231, 284.659 232.238, 282.981 233.750 M 236.686 267.415 C 229.672 273.916, 233.045 282.317, 244.861 287.773 C 258.469 294.056, 278 286.403, 278 274.788 C 278 266.752, 268.830 262.169, 262.154 266.869 C 257.585 270.086, 255.661 270.193, 250.620 267.513 C 244.571 264.296, 240.085 264.265, 236.686 267.415 M 173.261 291.496 C 170.930 294.515, 166.317 299.085, 163.011 301.653 L 157 306.321 157 312.553 L 157 318.786 176.250 323.445 C 188.045 326.300, 198.348 329.439, 202.854 331.552 C 206.898 333.448, 210.386 335, 210.604 335 C 210.822 335, 211 331.889, 211 328.088 L 211 321.176 204.638 316.636 C 196.813 311.052, 186.190 299.721, 181.423 291.873 C 179.461 288.643, 177.775 286.002, 177.678 286.004 C 177.580 286.006, 175.592 288.477, 173.261 291.496 M 331.053 291.407 C 326.931 298.611, 314.222 312.095, 306.809 317.129 L 301 321.075 301 328.037 C 301 331.867, 301.178 335, 301.396 335 C 301.614 335, 305.102 333.448, 309.146 331.552 C 313.652 329.439, 323.955 326.300, 335.750 323.445 L 355 318.786 355 312.553 L 355 306.321 349.186 301.806 C 345.989 299.323, 341.624 295.089, 339.486 292.396 C 337.349 289.703, 335.294 287.126, 334.919 286.669 C 334.545 286.213, 332.805 288.344, 331.053 291.407 M 107 321.342 C 107 326.328, 108.063 329.737, 114.250 344.587 C 118.237 354.159, 121.725 361.989, 122 361.986 C 122.275 361.984, 125.762 354.107, 129.750 344.483 C 135.877 329.696, 137 326.095, 137 321.242 L 137 315.500 122 315.500 L 107 315.500 107 321.342 M 375 321.342 C 375 326.328, 376.063 329.737, 382.250 344.587 C 386.238 354.159, 389.725 361.989, 390 361.986 C 390.275 361.984, 393.762 354.107, 397.750 344.483 C 403.877 329.696, 405 326.095, 405 321.242 L 405 315.500 390 315.500 L 375 315.500 375 321.342 M 231 339.642 L 231 349.420 243.217 377.210 C 249.936 392.494, 255.674 405, 255.969 405 C 256.263 405, 262.016 392.436, 268.752 377.079 L 281 349.158 281 339.701 L 281 330.244 274.250 331.725 C 262.840 334.229, 243.328 333.604, 232.750 330.396 C 231.166 329.916, 231 330.795, 231 339.642 M 70.326 344.073 C 54.724 347.882, 50.016 349.453, 44.914 352.552 C 33.888 359.250, 26.654 368.229, 22.800 380 C 20.851 385.956, 20.636 389.241, 20.235 419.250 L 19.797 452 29.899 452 L 40 452 40 427.689 C 40 404.388, 40.087 403.284, 42.096 401.127 C 46.627 396.264, 52.819 396.091, 57.427 400.700 L 60 403.273 60 427.636 L 60 452 74.861 452 L 89.721 452 90.284 440.750 C 91.133 423.763, 96.323 408.250, 105.850 394.221 L 109.948 388.186 99.712 363.792 L 89.477 339.397 70.326 344.073 M 150.057 349.703 C 147.664 355.388, 145.911 360.245, 146.163 360.496 C 146.414 360.747, 148.842 360.117, 151.560 359.096 C 154.277 358.075, 164.284 355.333, 173.798 353.001 C 183.312 350.670, 190.933 348.600, 190.734 348.400 C 190.534 348.201, 182.279 346.086, 172.389 343.702 L 154.408 339.366 150.057 349.703 M 339.179 343.770 C 329.102 346.202, 321.070 348.403, 321.329 348.663 C 321.588 348.922, 329.899 351.125, 339.798 353.559 C 349.697 355.992, 359.846 358.863, 362.352 359.937 L 366.909 361.890 366.042 359.695 C 365.566 358.488, 363.449 353.416, 361.338 348.424 L 357.500 339.349 339.179 343.770 M 412.062 364.043 L 401.820 388.745 405.324 393.623 C 414.822 406.844, 420.777 424.153, 421.712 441.250 L 422.300 452 437.150 452 L 452 452 452 427.636 L 452 403.273 454.573 400.700 C 459.181 396.091, 465.373 396.264, 469.904 401.127 C 471.913 403.284, 472 404.388, 472 427.689 L 472 452 482.092 452 L 492.185 452 491.768 419.250 C 491.385 389.130, 491.180 385.978, 489.212 380 C 485.068 367.415, 476.132 356.879, 464.750 351.158 C 460.876 349.210, 451.621 346.368, 440.402 343.679 L 422.303 339.341 412.062 364.043 M 0.456 425 C 0.456 447.275, 0.588 456.387, 0.749 445.250 C 0.910 434.113, 0.910 415.888, 0.749 404.750 C 0.588 393.613, 0.456 402.725, 0.456 425" stroke="none" fill="black" fill-rule="evenodd"/>
</svg>